<?xml version="1.0" encoding="UTF-8"?><svg id="a" xmlns="http://www.w3.org/2000/svg" xmlns:xlink="http://www.w3.org/1999/xlink" viewBox="0 0 300 300"><defs><linearGradient id="b" x1="300" y1="-570" x2="0" y2="-570" gradientTransform="translate(0 -420) scale(1 -1)" gradientUnits="userSpaceOnUse"><stop offset="0" stop-color="#0277bd"/><stop offset=".14" stop-color="#3473b4"/><stop offset=".29" stop-color="#626fab"/><stop offset=".44" stop-color="#886ca5"/><stop offset=".58" stop-color="#a66a9f"/><stop offset=".73" stop-color="#bb689c"/><stop offset=".87" stop-color="#c86799"/><stop offset="1" stop-color="#cd6799"/></linearGradient></defs><rect x="0" y="0" width="300" height="300" rx="150" ry="150" style="fill:url(#b);"/><g id="c"><path d="m219.45,80.07h-61.93l2.25,24.7h59.69v-24.7Z" style="fill:#fff; stroke:#282121; stroke-miterlimit:10;"/><path d="m219.45,219.91v-25.7l-.11.03-27.51-7.43-1.76-19.7h-24.79l3.46,38.79,50.59,14.05.12-.04h0Z" style="fill:#fff; stroke:#282121; stroke-miterlimit:10;"/></g><g id="d"><path d="m212.18,162.8c-7.95.04-14.86,1.96-20.66,4.79-2.12-4.21-4.25-7.95-4.62-10.7-.41-3.21-.92-5.17-.41-9s2.75-9.28,2.7-9.71c-.04-.41-.5-2.37-5.08-2.42-4.58-.04-8.54.87-9,2.08-.46,1.2-1.33,3.95-1.91,6.78-.79,4.16-9.17,19.03-13.96,26.82-1.54-3.04-2.88-5.71-3.16-7.83-.41-3.21-.92-5.17-.41-9s2.75-9.28,2.7-9.71c-.04-.41-.5-2.37-5.08-2.42-4.58-.04-8.54.87-9,2.08-.46,1.2-.96,4.04-1.91,6.78-.95,2.75-12.08,27.57-14.99,33.99-1.5,3.29-2.79,5.91-3.7,7.7,0,0-.04.13-.17.33-.79,1.54-1.25,2.37-1.25,2.37v.04c-.62,1.12-1.29,2.17-1.63,2.17-.25,0-.71-3,.08-7.08,1.66-8.62,5.63-22.03,5.58-22.48,0-.25.75-2.58-2.58-3.79-3.25-1.2-4.41.79-4.71.79s-.5.71-.5.71c0,0,3.62-15.08-6.91-15.08-6.58,0-15.66,7.21-20.16,13.7-2.83,1.54-8.87,4.83-15.32,8.37-2.45,1.37-5,2.75-7.37,4.04-.17-.17-.33-.38-.5-.54-12.74-13.61-36.31-23.24-35.32-41.52.38-6.67,2.67-24.16,45.26-45.39,35.06-17.28,62.97-12.49,67.8-1.88,6.91,15.16-14.95,43.31-51.19,47.39-13.83,1.54-21.07-3.79-22.91-5.79-1.91-2.08-2.21-2.21-2.91-1.79-1.17.62-.41,2.5,0,3.58,1.08,2.83,5.54,7.83,13.08,10.29,6.66,2.17,22.86,3.37,42.48-4.21,21.94-8.49,39.11-32.11,34.07-51.89-5.04-20.08-38.35-26.7-69.88-15.49-18.74,6.66-39.06,17.16-53.68,30.81-17.36,16.24-20.11,30.36-18.99,36.27,4.04,20.99,32.98,34.65,44.56,44.77-.58.33-1.12.63-1.58.87-5.79,2.88-27.86,14.41-33.36,26.61-6.25,13.83,1,23.73,5.79,25.07,14.86,4.12,30.15-3.29,38.35-15.54,8.2-12.24,7.21-28.15,3.41-35.44-.04-.08-.08-.17-.17-.25,1.5-.87,3.04-1.79,4.54-2.67,2.96-1.75,5.87-3.37,8.37-4.71-1.42,3.87-2.45,8.49-2.96,15.16-.63,7.83,2.58,17.99,6.78,21.99,1.88,1.75,4.08,1.79,5.5,1.79,4.92,0,7.12-4.08,9.58-8.91,3-5.91,5.71-12.79,5.71-12.79,0,0-3.37,18.57,5.79,18.57,3.33,0,6.7-4.33,8.2-6.54v.04s.08-.13.25-.41c.33-.54.54-.87.54-.87v-.08c1.33-2.33,4.33-7.62,8.79-16.41,5.74-11.32,11.29-25.49,11.29-25.49,0,0,.5,3.46,2.21,9.2,1,3.37,3.08,7.08,4.74,10.66-1.33,1.88-2.17,2.91-2.17,2.91l.04.04c-1.08,1.42-2.25,2.96-3.54,4.46-4.54,5.42-9.96,11.62-10.7,13.41-.87,2.12-.66,3.67,1,4.92,1.2.92,3.37,1.04,5.58.92,4.08-.29,6.96-1.29,8.38-1.91,2.21-.79,4.79-1.99,7.21-3.79,4.46-3.29,7.16-8,6.91-14.2-.13-3.41-1.25-6.83-2.62-10.04.41-.58.79-1.17,1.2-1.75,7.04-10.29,12.49-21.58,12.49-21.58,0,0,.5,3.46,2.21,9.2.84,2.91,2.54,6.08,4.04,9.17-6.62,5.37-10.7,11.62-12.16,15.7-2.62,7.58-.58,10.99,3.29,11.78,1.75.38,4.25-.46,6.08-1.25,2.33-.75,5.08-2.04,7.7-3.95,4.46-3.29,8.74-7.87,8.49-14.07-.13-2.83-.87-5.63-1.91-8.33,5.63-2.33,12.87-3.62,22.12-2.54,19.82,2.34,23.74,14.7,22.99,19.9-.75,5.2-4.92,8.03-6.29,8.91-1.37.87-1.83,1.17-1.71,1.79.17.92.84.87,1.99.71,1.63-.29,10.42-4.21,10.78-13.79.63-12.24-11.04-25.61-31.65-25.49v.03Zm-152.92,51.55c-6.58,7.16-15.74,9.87-19.7,7.58-4.25-2.46-2.58-13.04,5.5-20.61,4.92-4.62,11.24-8.91,15.45-11.54.96-.58,2.37-1.42,4.08-2.45.29-.17.46-.25.46-.25.33-.21.66-.41,1-.63,2.96,10.83.13,20.36-6.78,27.9h0Zm47.89-32.57c-2.29,5.58-7.08,19.87-9.99,19.08-2.5-.66-4.04-11.49-.5-22.2,1.79-5.37,5.58-11.78,7.79-14.29,3.59-4,7.54-5.33,8.49-3.7,1.2,2.12-4.38,17.61-5.79,21.12h0Zm39.52,18.91c-.96.5-1.88.84-2.29.58-.29-.17.41-.84.41-.84,0,0,4.96-5.33,6.91-7.75,1.12-1.42,2.45-3.08,3.87-4.96v.54c0,6.37-6.16,10.66-8.91,12.41h0Zm30.48-6.96c-.71-.5-.58-2.17,1.79-7.37.92-2.04,3.08-5.45,6.78-8.74.41,1.33.71,2.62.66,3.83-.04,8.03-5.79,11.04-9.25,12.28h0Z" style="fill:#fff; stroke:#282121; stroke-miterlimit:10;"/></g><path d="m249.78,154.76l-2.87,32.04-27.54,7.43v25.69l50.64-14.04.37-4.17,5.81-65.03.6-6.63,4.46-49.99h-61.87v24.7h34.8l-2.25,25.3h-32.56v24.7h30.42,0Z" style="fill:#fff; stroke:#282121; stroke-miterlimit:10;"/><path d="m161.96,130.06l2.21,24.7h55.28v-24.7h-57.49Z" style="fill:#fff; stroke:#282121; stroke-miterlimit:10;"/></svg>